<svg width="207" height="207" viewBox="0 0 207 207" fill="none" xmlns="http://www.w3.org/2000/svg">
<path d="M207 103.5C207 160.661 160.661 207 103.5 207C46.3385 207 0 160.661 0 103.5C0 46.3385 46.3385 0 103.5 0C160.661 0 207 46.3385 207 103.5Z" fill="#E31A20"/>
<path d="M164 63C164 74.0457 155.046 83 144 83C132.954 83 124 74.0457 124 63C124 51.9543 132.954 43 144 43C155.046 43 164 51.9543 164 63Z" fill="#FDFDFE"/>
<path d="M93 54.5C93 66.3741 83.3741 76 71.5 76C59.6259 76 50 66.3741 50 54.5C50 42.6259 59.6259 33 71.5 33C83.3741 33 93 42.6259 93 54.5Z" fill="white"/>
<path d="M111.5 152C81.4999 123 72.5 105.5 63 116.5C53.5 127.5 76 142 93.5 161.5L106.5 175C107.5 176 109.7 178.3 108.5 181.5C107.3 184.7 98 184.111 92.5 183.5C88 183 73.5001 177 65.5 171C65.5 171 48.5001 160.5 37.9999 136C32.8919 125.5 29.3022 93.8957 54.4999 84.5C84 73.5 109 108 125.5 124.5L163.5 86C166.333 83.1667 173.6 79.2 180 86C186.4 92.8 183.667 100.833 181 103.5L134.289 149.5C121.5 162.289 116.5 157 111.5 152Z" fill="white"/>
</svg>
